<svg width="128" height="128" viewBox="0 0 128 128" fill="none" xmlns="http://www.w3.org/2000/svg">
<path d="M49.5161 77.852C50.2539 77.852 50.8521 77.2538 50.8521 76.516C50.8521 75.7781 50.2539 75.18 49.5161 75.18C48.7782 75.18 48.1801 75.7781 48.1801 76.516C48.1801 77.2538 48.7782 77.852 49.5161 77.852Z" fill="white"/>
<path d="M99.08 79.94H89.45C88.1239 79.94 86.8521 80.4668 85.9145 81.4044C84.9768 82.3421 84.45 83.6139 84.45 84.94V88.06C84.45 88.3252 84.3446 88.5796 84.1571 88.7671C83.9696 88.9546 83.7152 89.06 83.45 89.06H78.54C78.2748 89.06 78.0204 88.9546 77.8329 88.7671C77.6454 88.5796 77.54 88.3252 77.54 88.06L77.531 81.873C78.7823 81.6407 79.9128 80.9778 80.7265 79.9992C81.5402 79.0207 81.9856 77.7882 81.9856 76.5155C81.9856 75.2428 81.5402 74.0103 80.7265 73.0317C79.9128 72.0531 78.7823 71.3902 77.531 71.158V63.969C79.768 63.6758 81.7991 62.5119 83.183 60.73C83.7044 60.0289 84.0453 59.2102 84.1754 58.3463C84.3055 57.4823 84.2209 56.5995 83.929 55.776L77.246 36.776C78.0757 36.5832 78.855 36.2166 79.5324 35.7003C80.2099 35.184 80.7701 34.5298 81.176 33.781C81.74 32.7685 82.0231 31.6236 81.9958 30.4649C81.9686 29.3062 81.632 28.1759 81.021 27.191L65.2 1.70499C64.9897 1.35725 64.6998 1.06447 64.3542 0.850793C64.0085 0.637112 63.6171 0.508645 63.212 0.475986C63.129 0.466986 63.038 0.459986 62.942 0.459986H62.935C62.927 0.459986 62.92 0.459986 62.911 0.459986C62.8249 0.4595 62.739 0.46619 62.654 0.479986C62.583 0.488986 62.511 0.511986 62.439 0.527986C62.3353 0.549833 62.2334 0.579245 62.134 0.615986C62.0348 0.64935 61.9377 0.688415 61.843 0.732986L61.823 0.742986L61.774 0.769986C61.75 0.782986 61.732 0.803986 61.708 0.817986C61.684 0.831986 61.68 0.838986 61.666 0.848986C61.3133 1.05913 61.0163 1.351 60.8 1.69999L44.98 27.192C44.376 28.1691 44.0413 29.2885 44.0096 30.4367C43.978 31.585 44.2507 32.7212 44.8 33.73C45.1946 34.4722 45.7401 35.1236 46.4014 35.6425C47.0627 36.1614 47.8252 36.5363 48.64 36.743L41.94 55.775C41.648 56.5985 41.5634 57.4813 41.6935 58.3453C41.8236 59.2093 42.1645 60.028 42.686 60.729C43.3915 61.6354 44.271 62.3917 45.2728 62.9534C46.2747 63.5151 47.3787 63.8709 48.52 64V71.16C47.2681 71.3917 46.1369 72.0544 45.3227 73.0332C44.5085 74.0119 44.0627 75.2448 44.0627 76.518C44.0627 77.7911 44.5085 79.0241 45.3227 80.0028C46.1369 80.9815 47.2681 81.6443 48.52 81.876V83.51C48.52 83.7752 48.4146 84.0296 48.2271 84.2171C48.0396 84.4046 47.7852 84.51 47.52 84.51H42.51C42.2448 84.51 41.9904 84.4046 41.8029 84.2171C41.6154 84.0296 41.51 83.7752 41.51 83.51V75.99C41.51 74.6639 40.9832 73.3921 40.0455 72.4545C39.1079 71.5168 37.8361 70.99 36.51 70.99H27C26.7348 70.99 26.4804 71.0953 26.2929 71.2829C26.1054 71.4704 26 71.7248 26 71.99C26.0037 73.4572 26.5889 74.8632 27.6273 75.8997C28.6658 76.9363 30.0728 77.5189 31.54 77.52H33.97C34.2352 77.52 34.4896 77.6253 34.6771 77.8129C34.8646 78.0004 34.97 78.2548 34.97 78.52V86.05C34.97 87.3761 35.4968 88.6478 36.4345 89.5855C37.3721 90.5232 38.6439 91.05 39.97 91.05H48.52V126.02C48.52 126.285 48.6254 126.54 48.8129 126.727C49.0004 126.915 49.2548 127.02 49.52 127.02C50.9872 127.016 52.3932 126.431 53.4297 125.393C54.4663 124.354 55.0489 122.947 55.05 121.48V82.44C55.0505 82.3767 55.0637 82.3142 55.0887 82.2561C55.1138 82.1979 55.1502 82.1454 55.1959 82.1016C55.2415 82.0578 55.2955 82.0236 55.3546 82.001C55.4137 81.9784 55.4768 81.9678 55.54 81.97C55.6018 81.9699 55.6629 81.9819 55.72 82.0055C55.7771 82.0291 55.829 82.0637 55.8726 82.1074C55.9163 82.151 55.9509 82.2029 55.9745 82.26C55.9981 82.317 56.0101 82.3782 56.01 82.44V126.02C56.01 126.285 56.1154 126.54 56.3029 126.727C56.4904 126.915 56.7448 127.02 57.01 127.02C58.4783 127.017 59.8856 126.432 60.9239 125.394C61.9621 124.356 62.5468 122.948 62.55 121.48V82.44C62.5505 82.3767 62.5637 82.3142 62.5887 82.2561C62.6138 82.1979 62.6502 82.1454 62.6959 82.1016C62.7415 82.0578 62.7955 82.0236 62.8546 82.001C62.9137 81.9784 62.9768 81.9678 63.04 81.97C63.1018 81.9699 63.1629 81.9819 63.22 82.0055C63.2771 82.0291 63.329 82.0637 63.3726 82.1074C63.4163 82.151 63.4509 82.2029 63.4745 82.26C63.4981 82.317 63.5101 82.3782 63.51 82.44V121.48C63.5132 122.948 64.0979 124.356 65.1361 125.394C66.1744 126.432 67.5817 127.017 69.05 127.02C69.3152 127.02 69.5696 126.915 69.7571 126.727C69.9446 126.54 70.05 126.285 70.05 126.02V82.44C70.05 82.314 70.1 82.1932 70.1891 82.1041C70.2782 82.015 70.399 81.965 70.525 81.965C70.651 81.965 70.7718 82.015 70.8609 82.1041C70.95 82.1932 71 82.314 71 82.44V121.48C71.0032 122.948 71.5879 124.356 72.6261 125.394C73.6644 126.432 75.0717 127.017 76.54 127.02C76.8052 127.02 77.0596 126.915 77.2471 126.727C77.4346 126.54 77.54 126.285 77.54 126.02V95.6H86C87.3261 95.6 88.5979 95.0732 89.5355 94.1355C90.4732 93.1978 91 91.9261 91 90.6V90.06C91 90.04 90.99 90.03 90.99 90.01V87.47C90.99 87.2048 91.0954 86.9504 91.2829 86.7629C91.4704 86.5753 91.7248 86.47 91.99 86.47H94.55C96.0166 86.4697 97.423 85.887 98.46 84.85C99.497 83.813 100.08 82.4066 100.08 80.94C100.08 80.6748 99.9746 80.4204 99.7871 80.2329C99.5996 80.0453 99.3452 79.94 99.08 79.94ZM51.367 46.063C51.9311 46.063 52.4825 46.2303 52.9515 46.5436C53.4205 46.857 53.786 47.3024 54.0019 47.8236C54.2178 48.3447 54.2742 48.9181 54.1642 49.4714C54.0542 50.0246 53.7825 50.5328 53.3837 50.9317C52.9848 51.3305 52.4766 51.6021 51.9234 51.7122C51.3702 51.8222 50.7967 51.7657 50.2756 51.5499C49.7545 51.334 49.309 50.9685 48.9956 50.4995C48.6823 50.0305 48.515 49.4791 48.515 48.915C48.5158 48.1588 48.8165 47.4339 49.3512 46.8992C49.8859 46.3645 50.6108 46.0638 51.367 46.063V46.063ZM46.067 76.516C46.067 75.833 46.2695 75.1654 46.6489 74.5976C47.0284 74.0298 47.5676 73.5872 48.1986 73.3258C48.8295 73.0645 49.5238 72.9961 50.1936 73.1293C50.8635 73.2626 51.4787 73.5914 51.9616 74.0743C52.4446 74.5573 52.7734 75.1725 52.9067 75.8423C53.0399 76.5122 52.9715 77.2064 52.7102 77.8374C52.4488 78.4683 52.0062 79.0076 51.4384 79.387C50.8705 79.7665 50.2029 79.969 49.52 79.969C48.6038 79.969 47.7251 79.6053 47.0769 78.9579C46.4287 78.3104 46.0641 77.4321 46.063 76.516H46.067ZM51.15 60.334C50.3939 60.334 49.6547 60.1098 49.0261 59.6897C48.3974 59.2696 47.9074 58.6725 47.618 57.974C47.3287 57.2754 47.2529 56.5067 47.4005 55.7652C47.548 55.0236 47.9121 54.3424 48.4467 53.8077C48.9814 53.2731 49.6626 52.909 50.4042 52.7614C51.1458 52.6139 51.9144 52.6896 52.613 52.979C53.3116 53.2683 53.9086 53.7584 54.3287 54.387C54.7488 55.0157 54.973 55.7549 54.973 56.511C54.9717 57.5251 54.5679 58.4972 53.8503 59.2139C53.1328 59.9305 52.1601 60.333 51.146 60.333L51.15 60.334ZM56.535 53.751C56.1208 53.751 55.716 53.6282 55.3716 53.3981C55.0273 53.168 54.7589 52.841 54.6004 52.4583C54.4419 52.0757 54.4004 51.6547 54.4812 51.2485C54.562 50.8423 54.7615 50.4692 55.0543 50.1763C55.3472 49.8835 55.7203 49.684 56.1265 49.6032C56.5327 49.5224 56.9537 49.5639 57.3363 49.7224C57.719 49.8809 58.046 50.1493 58.2761 50.4936C58.5062 50.838 58.629 51.2428 58.629 51.657C58.6272 52.2124 58.4054 52.7444 58.0122 53.1367C57.619 53.5289 57.0864 53.7495 56.531 53.75L56.535 53.751ZM79.985 76.516C79.985 77.1989 79.7825 77.8665 79.4031 78.4344C79.0236 79.0022 78.4844 79.4448 77.8534 79.7061C77.2225 79.9675 76.5282 80.0359 75.8584 79.9026C75.1885 79.7694 74.5733 79.4405 74.0904 78.9576C73.6075 78.4747 73.2786 77.8594 73.1453 77.1896C73.0121 76.5198 73.0805 75.8255 73.3418 75.1946C73.6032 74.5636 74.0458 74.0243 74.6136 73.6449C75.1815 73.2655 75.8491 73.063 76.532 73.063C77.4475 73.064 78.3251 73.4282 78.9725 74.0755C79.6198 74.7228 79.9839 75.6005 79.985 76.516V76.516ZM72.229 64.583C72.7037 64.583 73.1677 64.7237 73.5624 64.9875C73.957 65.2512 74.2647 65.626 74.4463 66.0645C74.628 66.5031 74.6755 66.9856 74.5829 67.4512C74.4903 67.9168 74.2617 68.3444 73.9261 68.68C73.5904 69.0157 73.1628 69.2443 72.6972 69.3369C72.2317 69.4295 71.7491 69.3819 71.3106 69.2003C70.872 69.0186 70.4972 68.711 70.2335 68.3164C69.9698 67.9217 69.829 67.4577 69.829 66.983C69.829 66.6678 69.8911 66.3557 70.0117 66.0645C70.1323 65.7734 70.3091 65.5088 70.5319 65.2859C70.7548 65.0631 71.0194 64.8863 71.3106 64.7657C71.6017 64.6451 71.9138 64.583 72.229 64.583V64.583ZM69.948 73.062C69.5628 73.0612 69.1866 72.9462 68.8667 72.7317C68.5469 72.5171 68.2978 72.2125 68.151 71.8565C68.0042 71.5004 67.9663 71.1088 68.042 70.7311C68.1177 70.3535 68.3036 70.0068 68.5763 69.7348C68.849 69.4628 69.1962 69.2777 69.574 69.203C69.9519 69.1283 70.3434 69.1672 70.6991 69.3149C71.0548 69.4627 71.3587 69.7125 71.5725 70.0329C71.7862 70.3533 71.9002 70.7298 71.9 71.115C71.8997 71.3711 71.849 71.6246 71.7508 71.8611C71.6526 72.0976 71.5087 72.3124 71.3274 72.4933C71.1462 72.6741 70.9311 72.8176 70.6944 72.9153C70.4577 73.0131 70.2041 73.0633 69.948 73.063V73.062Z" fill="white"/>
<path d="M76.53 77.852C77.2678 77.852 77.866 77.2538 77.866 76.516C77.866 75.7781 77.2678 75.18 76.53 75.18C75.7921 75.18 75.194 75.7781 75.194 76.516C75.194 77.2538 75.7921 77.852 76.53 77.852Z" fill="white"/>
</svg>
